<svg width="144" height="63" viewBox="0 0 144 63" fill="none" xmlns="http://www.w3.org/2000/svg">
<path d="M54.1037 55.8082H44.2753L50.1803 35.1551H45.1868L36.9833 62.7333H27.1549L43.4034 6.88437H53.2318L47.6835 26.4784H52.677L60.5635 0H70.3919L54.1037 55.8082Z" fill="#E02041"/>
<path d="M71.1846 6.88437H89.9299L87.1161 15.6833H78.5956L75.5044 26.4376H84.0646L81.3697 35.1144H73.0076L69.7183 46.4797H78.8333L75.544 55.7675H57.1554L71.1846 6.88437Z" fill="#E02041"/>
<path d="M87.1556 62.7333H77.2479L93.0605 6.88437H111.053C113.193 6.88437 114.62 7.4954 115.373 8.75822C116.126 10.021 116.244 11.4468 115.769 13.0762L111.013 29.6965C110.775 30.4297 110.339 31.0815 109.666 31.6926C108.992 32.3036 108.041 32.5887 106.812 32.5887C107.565 32.7109 108.199 33.1998 108.715 34.0552C109.23 34.9107 109.23 36.2142 108.715 37.9659L103.602 55.8082H93.7342L99.2033 36.6216C99.3221 36.2142 99.3618 35.8476 99.2429 35.481C99.124 35.1144 98.7673 34.9514 98.1729 34.9514H94.8835L87.1556 62.7333ZM100.313 27.7412C100.788 27.7412 101.224 27.619 101.66 27.3745C102.057 27.1301 102.374 26.6413 102.611 25.8673L105.227 16.7832C105.623 15.4389 105.108 14.7464 103.721 14.7464H100.63L96.9047 27.7412H100.313Z" fill="#E02041"/>
<path d="M139.944 6.88437C141.489 6.88437 142.599 7.45467 143.312 8.59527C144.025 9.73588 144.184 11.0394 143.788 12.4652L132.85 50.6348C132.255 52.6716 131.225 54.0158 129.798 54.7491C128.371 55.4823 126.826 55.8082 125.201 55.8082H113.47C112.638 55.8082 111.885 55.6453 111.172 55.3601C110.458 55.075 109.903 54.6269 109.428 54.0566C108.952 53.4863 108.675 52.753 108.516 51.9383C108.358 51.1236 108.437 50.1867 108.754 49.1275L119.494 11.6505C119.851 10.2247 120.564 9.04337 121.634 8.18792C122.704 7.33246 124.052 6.88437 125.676 6.88437H139.944ZM129.64 14.7464C129.164 14.7464 128.807 14.8686 128.609 15.0723C128.371 15.3167 128.252 15.6019 128.134 15.9277L119.375 46.3982C119.137 47.2129 119.454 47.6203 120.287 47.6203H122.823C123.655 47.6203 124.171 47.2129 124.408 46.3982L133.127 15.9685C133.325 15.113 133.008 14.7057 132.136 14.7057H129.64V14.7464Z" fill="#E02041"/>
<path d="M18.1111 12.2208H24.4916C25.3239 12.2208 25.8391 12.4652 26.0769 12.9133C26.3146 13.3614 26.3543 13.891 26.1957 14.5427L24.6898 19.8384C24.6105 20.1643 24.4124 20.4495 24.0953 20.6939C23.7783 20.979 23.3027 21.0605 22.7083 21.0605C23.0253 21.0605 23.2631 21.142 23.4216 21.2642C23.6198 21.3864 23.7386 21.5493 23.8179 21.753C23.8972 21.9567 23.9368 22.1604 23.9368 22.4048C23.9368 22.6492 23.8972 22.8936 23.8575 23.0973L22.4308 27.9449C22.2723 28.5152 21.9553 28.9633 21.559 29.2892C21.1627 29.615 20.5286 29.778 19.7756 29.778H13.078L18.1111 12.2208ZM18.7452 26.8857C18.9037 26.8857 19.0622 26.845 19.1811 26.8043C19.3 26.7228 19.4189 26.5598 19.4982 26.3154L20.5286 22.7714C20.6078 22.527 20.6078 22.364 20.5286 22.2011C20.4493 22.0382 20.2908 21.9974 20.053 21.9974H18.9433L17.5166 26.9265H18.7452V26.8857ZM20.6871 19.6347C20.9249 19.6347 21.123 19.594 21.2419 19.5125C21.3608 19.4311 21.4797 19.2681 21.559 18.983L22.4705 15.8056C22.5497 15.5611 22.5497 15.3982 22.5101 15.276C22.4308 15.1538 22.2723 15.0723 22.0345 15.0723H20.8852L19.5774 19.6347H20.6871Z" fill="#41414D"/>
<path d="M28.0979 12.2208H34.8351L33.9236 15.3982H30.7531L29.6435 19.2681H32.7347L31.8232 22.4048H28.732L27.5431 26.4784H30.8324L29.6435 29.8187H23.0648L28.0979 12.2208Z" fill="#41414D"/>
<path d="M10.938 32.8739L10.0265 36.0513H7.60906L3.52711 50.4311H0L4.1612 36.0106H1.70411L2.61561 32.8332H10.938V32.8739Z" fill="#41414D"/>
<path d="M15.7334 50.4335H12.2063L14.3067 43.0196H12.5234L10.3833 50.4335H6.8562L11.8893 32.8763H15.4164L13.4349 39.9236H15.2182L17.2394 32.8763H20.7665L15.7334 50.4335Z" fill="#41414D"/>
<path d="M21.8761 32.8763H28.6133L27.7018 36.0537H24.5314L23.4217 39.9236H26.5129L25.6014 43.0603H22.5102L21.3213 47.1339H24.6106L23.4217 50.4742H16.843L21.8761 32.8763Z" fill="#41414D"/>
</svg>
